<svg xmlns="http://www.w3.org/2000/svg" xml:space="preserve" viewBox="0 0 4000 4000"><g style="display:inline"><path d="M3081.47 2338.2h26.43v1095.4l-248.62-133.4c-463.78-248.84-1254.78-248.84-1718.56 0L892.1 3433.6V2338.2h26.43c-41.85-64.49-86.58-145.02-126.95-214.95l339.78-115.55c-25.12-51.28-44.63-104.52-55.16-161.62l-5.28-28.62 22.3-18.7c82.63-69.27 141.93-175.48 186.23-272.26 57.99-126.72 102.29-262.25 146.2-394.44 101.75-306.36 237.89-484.6 562.63-563.03 14.54-3.51 8.9-3.51 23.44 0 324.74 78.43 460.88 256.67 562.63 563.03 43.91 132.19 88.21 267.72 146.2 394.44 44.3 96.78 103.6 202.99 186.23 272.26l22.3 18.7-5.28 28.62c-10.53 57.1-30.04 110.34-55.16 161.62l339.78 115.55c-40.37 69.93-85.1 150.46-126.95 214.95" style="clip-rule:evenodd;fill:#c835f8;fill-rule:evenodd"/><path d="M2000 617.57c307 74.14 430.51 239.81 526.97 530.22 93.79 282.37 185.46 553.18 347.73 689.23-14.54 78.84-47.42 146.08-77.68 199.06l337.76 114.86c-60.67 105.09-110.27 198.31-193.87 289.31-149.92 350.49-442.39 538.76-940.91 464.99-498.52 73.77-790.99-114.5-940.91-464.99-83.6-91-133.2-184.22-193.87-289.31l337.76-114.86c-30.26-52.98-63.14-120.22-77.68-199.06 162.27-136.05 253.94-406.86 347.73-689.23C1569.49 857.38 1693 691.71 2000 617.57" style="clip-rule:evenodd;fill-rule:evenodd"/><path d="M2000 736.83c515.56 124.53 363.98 719.93 696.98 1046.66 0 0-132.94-58.58-234.79-230.55 0 0 60.48 244.1 258.54 371.06 0 0-78.52 282.52-643.33 494.45 0 0 317.41-177.76 431.68-398.67 0 0-172.05-412.97-183.09-713.27 0 0-23.89 38-37.29 110.6 0 0-94.82-217.61-288.7-329.54-193.88 111.93-288.7 329.54-288.7 329.54-13.4-72.6-37.29-110.6-37.29-110.6-11.04 300.3-183.09 713.27-183.09 713.27 114.27 220.91 431.68 398.67 431.68 398.67-564.81-211.93-643.33-494.45-643.33-494.45 198.06-126.96 258.54-371.06 258.54-371.06-101.85 171.97-234.79 230.55-234.79 230.55 333-326.73 181.42-922.13 696.98-1046.66" style="clip-rule:evenodd;fill:#c835f8;fill-rule:evenodd"/><path d="m2000 1359.61 54.71-35.28-5.82 49.65 34.91-43.12s41.04-2.27 83.07 23.95c0 0-43.59 28.84-73.17 76.04 0 0 45.3-31.95 94.96-43.7 0 0 33.47 25.34 57.6 69.92 0 0-54.49 6.12-138.55 76.91-36.96 31.13-84.73 10.86-81.86-33.97 0 0-25.98 79.5 41.74 110.96 0 0 8.63 61.88 77.49 61.88 0 0-22.95-12.56-37.08-44.28 0 0 131.31 55.84 162.66-67.68 0 0 105.53 196.94-47.87 201.21 0 0 21.93-17 30.01-33.03 0 0-81.39 22.2-156.86-8.87 0 0 31.02 31.79 79.5 42.94 0 0-23.79 37.21-36.58 89.57l-13.32-55.81-21.28 144.5c-4.15 5.32-10.2 9.94-17.62 13.87l-17.59-148.25-19.04 160.47c-10.29 2.07-21.3 3.45-32.57 4.15L2000 1824.65l-17.44 146.99c-11.27-.7-22.28-2.08-32.57-4.15l-19.04-160.47-17.59 148.25c-7.42-3.93-13.47-8.55-17.62-13.87l-21.28-144.5-13.32 55.81c-12.79-52.36-36.58-89.57-36.58-89.57 48.48-11.15 79.5-42.94 79.5-42.94-75.47 31.07-156.86 8.87-156.86 8.87 8.08 16.03 30.01 33.03 30.01 33.03-153.4-4.27-47.87-201.21-47.87-201.21 31.35 123.52 162.66 67.68 162.66 67.68-14.13 31.72-37.08 44.28-37.08 44.28 68.86 0 77.49-61.88 77.49-61.88 67.72-31.46 41.74-110.96 41.74-110.96 2.87 44.83-44.9 65.1-81.86 33.97-84.06-70.79-138.55-76.91-138.55-76.91 24.13-44.58 57.6-69.92 57.6-69.92 49.66 11.75 94.96 43.7 94.96 43.7-29.58-47.2-73.17-76.04-73.17-76.04 42.03-26.22 83.07-23.95 83.07-23.95l34.91 43.12-5.82-49.65z" style="clip-rule:evenodd;fill:#cbdbe2;fill-rule:evenodd"/><path d="m2000 1607.36 72.53 128.78-18.68 42.07-53.85-30.29-53.85 30.29-18.68-42.07z" style="clip-rule:evenodd;fill-rule:evenodd"/><path d="M2720.7 2132.58s-225.52 228.33-609.61 370.28c0 0 207.71-21.34 334.61-74-133.7 156.16-365.91 242.03-365.91 242.03 103.64-4.87 216.15-18.41 322.1-48.21 0 0-91.2 109.39-317.64 177.84 0 0 484.44 71.62 679.61-280.12l-168.36 39.99s231.25-107.8 368.29-345.15zM1279.3 2132.58s225.52 228.33 609.61 370.28c0 0-207.71-21.34-334.61-74 133.7 156.16 365.91 242.03 365.91 242.03-103.64-4.87-216.15-18.41-322.1-48.21 0 0 91.2 109.39 317.64 177.84 0 0-484.44 71.62-679.61-280.12l168.36 39.99s-231.25-107.8-368.29-345.15z" style="clip-rule:evenodd;fill:#c835f8;fill-rule:evenodd"/><path d="M2000 2136.05s256.32-57.12 357.88-158.68c0 0-43.44 103.17-135.43 195.16 0 0 113.58-55.99 175.97-118.38 0 0-121.75 174.37-398.42 308.75-276.67-134.38-398.42-308.75-398.42-308.75 62.39 62.39 175.97 118.38 175.97 118.38-91.99-91.99-135.43-195.16-135.43-195.16 101.56 101.56 357.88 158.68 357.88 158.68" style="clip-rule:evenodd;fill:#9027e2;fill-rule:evenodd"/><path d="M2255.98 1182.01C2151.54 1001.11 2000 933.13 2000 933.13s-151.54 67.98-255.98 248.88c0 0-32.14-73.37-25.37-154.01-157.44 174.84-119.4 374.43-180.84 524.94 0 0-9.87 39.79-34.66 95.6l.01-.01s-38.08 166.88-173.7 287.31c0 0 138.13 265 449.06 422.48 44.12 20.45 92.02 40.59 144.08 60.13 0 0-317.41-177.76-431.67-398.67 0 0 172.04-412.97 183.08-713.27 0 0 23.89 38.01 37.29 110.6 0 0 94.82-217.61 288.7-329.54 193.88 111.93 288.7 329.54 288.7 329.54 13.4-72.59 37.29-110.6 37.29-110.6 11.04 300.3 183.08 713.27 183.08 713.27-114.26 220.91-431.67 398.67-431.67 398.67 52.06-19.54 99.96-39.68 144.08-60.13 310.93-157.48 449.06-422.48 449.06-422.48-135.62-120.43-173.7-287.31-173.7-287.31l.01.01c-24.79-55.81-34.66-95.6-34.66-95.6-61.44-150.51-23.4-350.1-180.84-524.94 6.77 80.64-25.37 154.01-25.37 154.01M2763.86 2520.4l-168.36 39.99s231.25-107.8 368.29-345.15l-133.65-45.44c-52.05 112.62-219.15 257-383.48 335.81 0 0 79.88 17.61 152.5 2.06 0 0-252.23 105.61-519.37 163.22 103.64-4.87 216.15-18.41 322.1-48.21 0 0-91.2 109.39-317.64 177.84 0 0 484.44 71.62 679.61-280.12" style="clip-rule:evenodd;fill:#9027e2;fill-rule:evenodd"/><path d="M2040.76 1411.38c-15.39 43.61-4.33 130.53 55.04 71.16 36.69-36.69 84.54-57.41 121.26-67.62-15.53-18.03-28.4-27.77-28.4-27.77-49.66 11.75-94.96 43.7-94.96 43.7 29.58-47.2 73.17-76.04 73.17-76.04-42.03-26.22-83.07-23.95-83.07-23.95l-34.91 43.12 5.82-49.65-54.71 35.28-54.71-35.28 5.82 49.65-34.91-43.12s-41.04-2.27-83.07 23.95c0 0 43.59 28.84 73.17 76.04 0 0-45.3-31.95-94.96-43.7 0 0-12.87 9.74-28.4 27.77 36.72 10.21 84.57 30.93 121.26 67.62 59.37 59.37 70.43-27.55 55.04-71.16 31.86 29.48 40.76 70.6 40.76 70.6s8.9-41.12 40.76-70.6M2086.28 1678.27c-51.35-13.76-86.28-70.91-86.28-70.91l-72.53 128.78 18.68 42.07 53.85-30.29 53.85 30.29 18.68-42.07-72.53-128.78s-34.93 57.15-86.28 70.91c0 0 25.22-22.08 18.69-67.3 0 0-8.63 61.88-77.49 61.88 0 0 22.95-12.56 37.08-44.28 0 0-65.59 54.65-139.84 20.45 0 0 22.43.15 36.05-2.23 0 0-33.95-2.03-69.16-64.14-22.25 51.36-63.56 176.06 58.16 179.45 0 0-21.93-17-30.01-33.03 0 0 81.39 22.2 156.86-8.87 0 0-31.02 31.79-79.5 42.94 0 0 23.79 37.21 36.58 89.57l13.32-55.81 21.28 144.5c4.15 5.32 10.2 9.94 17.62 13.87l17.59-148.25 19.04 160.47c10.29 2.07 21.3 3.45 32.57 4.15l17.44-146.99 17.44 146.99c11.27-.7 22.28-2.08 32.57-4.15l19.04-160.47 17.59 148.25c7.42-3.93 13.47-8.55 17.62-13.87l21.28-144.5 13.32 55.81c12.79-52.36 36.58-89.57 36.58-89.57-48.48-11.15-79.5-42.94-79.5-42.94 75.47 31.07 156.86 8.87 156.86 8.87-8.08 16.03-30.01 33.03-30.01 33.03 121.72-3.39 80.41-128.09 58.16-179.45-35.21 62.11-69.16 64.14-69.16 64.14 13.62 2.38 36.05 2.23 36.05 2.23-74.25 34.2-139.84-20.45-139.84-20.45 14.13 31.72 37.08 44.28 37.08 44.28-68.86 0-77.49-61.88-77.49-61.88-6.53 45.22 18.69 67.3 18.69 67.3" style="clip-rule:evenodd;fill:#98a5b6;fill-rule:evenodd"/><path d="m1236.14 2520.4 168.36 39.99s-231.25-107.8-368.29-345.15l133.65-45.44c52.05 112.62 219.15 257 383.48 335.81 0 0-79.88 17.61-152.5 2.06 0 0 252.23 105.61 519.37 163.22-103.64-4.87-216.15-18.41-322.1-48.21 0 0 91.2 109.39 317.64 177.84 0 0-484.44 71.62-679.61-280.12" style="clip-rule:evenodd;fill:#9027e2;fill-rule:evenodd"/><path d="M942.03 2388.13h2115.94v962.02l-175.08-93.94c-259.06-139-591.83-192.47-882.89-192.47s-623.83 53.47-882.89 192.47l-175.08 93.94z" style="clip-rule:evenodd;fill-rule:evenodd"/><path d="M2786.775 930.15h65.813l.046 27.581c-8.787.336-26.359 1.052-26.359 1.052l.03 27.132c8.231-.666 24.684-1.923 24.684-1.923l.043 26.282c-8.232.916-24.697 2.861-24.697 2.861l.034 31.462c9.683-1.606 29.033-4.605 29.033-4.605l.047 27.482a1722.472 1722.472 0 0 0-68.673 14.456zm119.25 0 .252 102.792c8.008-1.007 24.011-2.875 24.011-2.875l.066 24.998a1649 1649 0 0 0-39.7 6.139c-13.239 2.212-23.837 4.16-23.837 4.16l-.26-135.215zm155.344 0 .203 111.702c-11.48.679-34.44 2.413-34.44 2.413l-.178-77.04a20642 20642 0 0 0-8.494 48.69c-2.829 16.335-5.09 29.525-5.09 29.525-8.148.73-24.443 2.381-24.443 2.381-2.745-14.19-5.844-30.303-9.205-47.94-3.069-16.11-5.525-29.142-5.525-29.142l.21 78.676c-11.494 1.314-34.489 4.32-34.489 4.32l-.33-123.586h51.094c1.518 7.062 3.133 15.352 4.845 24.853a36371 36371 0 0 0 5.512 29.514 40416 40416 0 0 1 8.861-54.367zm105.563 0c-.01 24.287-.02 72.847-.02 72.847q-.001 12.389-1.127 17.43c-.75 3.319-2.964 6.735-6.644 10.27-3.681 3.49-8.543 6.155-14.592 8.034-5.986 1.833-13.062 2.811-21.23 2.977-9.043.183-17.023-.655-23.95-2.587-6.928-1.933-12.102-4.551-15.542-7.919q-5.154-5.045-6.099-10.829-.945-5.85-.975-24.616l-.102-65.608h39.468l.066 82.05c0 4.776.35 7.833 1.037 9.17q1.124 1.936 4.4 1.876 3.742-.065 4.77-2.237 1.122-2.242 1.117-10.402l-.046-80.457zm15.28 0h65.813l-.04 22.357c-8.78-.104-26.334-.268-26.334-.268l-.029 20.93c8.214.137 24.637.484 24.637.484l-.038 21.235c-8.211-.277-24.627-.72-24.627-.72l-.033 24.272c9.642.328 28.922 1.197 28.922 1.197l-.042 22.39a1579 1579 0 0 0-68.292-2.682zm79.782 0h27.938c18.648 0 31.193.546 37.776 1.682 6.625 1.133 11.986 4.041 16.102 8.794 4.174 4.7 6.248 12.255 6.22 22.574-.025 9.422-1.511 15.689-4.457 18.762-2.953 3.08-8.724 4.667-17.354 4.848 7.806 1.924 13.047 4.287 15.728 7.035 2.68 2.747 4.33 5.255 4.948 7.491.682 2.191 1.01 8.176.983 17.947l-.086 31.929c-12.217-1.513-36.63-4.114-36.63-4.114l.1-38.863c.016-6.26-.63-10.177-1.938-11.741-1.246-1.562-4.584-2.488-10.019-2.766l-.13 52.208c-13.143-1.224-39.41-3.178-39.41-3.178zm39.42 19.81-.064 25.746c4.437.162 7.526-.171 9.28-1.019q2.721-1.34 2.741-9.07c.01-2.144.017-6.43.017-6.43.01-3.707-.859-6.158-2.605-7.344-1.686-1.185-4.806-1.81-9.369-1.883zm143.486-19.81-.05 27.145c-7.818-.288-23.446-.828-23.446-.828l-.236 105.192c-13.177-2.224-39.502-6.178-39.502-6.178l.263-100.25c-7.784-.224-23.344-.638-23.344-.638l.066-24.444zm9 0h65.813v30.252c-8.791-.406-26.365-1.175-26.365-1.175-.01 9.186-.023 27.552-.023 27.552 8.232.688 24.695 2.137 24.695 2.137v28.685c-8.242-1.097-24.714-3.18-24.714-3.18-.01 10.653-.026 31.95-.026 31.95 9.686 1.658 29.064 5.184 29.064 5.184v30.375a1729 1729 0 0 0-42.941-9.383c-14.302-2.934-25.732-5.073-25.732-5.073z" aria-label="ELMUERTE" style="font-size:192px;font-family:Impact;-inkscape-font-specification:Impact;white-space:pre;inline-size:753.52;fill:#fff;stroke-width:20;stroke-linecap:round;stroke-linejoin:round" transform="matrix(2.56196 0 0 4.16237 -6078.977 -1364.208)"/></g></svg>